G04 (created by PCBNEW (2013-may-18)-stable) date Пт 28 авг 2015 20:33:06*
%MOIN*%
G04 Gerber Fmt 3.4, Leading zero omitted, Abs format*
%FSLAX34Y34*%
G01*
G70*
G90*
G04 APERTURE LIST*
%ADD10C,0.00393701*%
%ADD11R,0.035X0.055*%
%ADD12C,0.0472441*%
%ADD13C,0.122047*%
%ADD14C,0.0590551*%
%ADD15C,0.019685*%
%ADD16C,0.0393701*%
G04 APERTURE END LIST*
G54D10*
G54D11*
X11990Y-12127D03*
X11240Y-12127D03*
G54D12*
X11174Y-10141D03*
X12174Y-10141D03*
G54D13*
X16060Y-10145D03*
X7005Y-10145D03*
G54D14*
X9865Y-10127D03*
X13615Y-10127D03*
G54D15*
X10365Y-12127D02*
X11240Y-12127D01*
X9865Y-11627D02*
X10365Y-12127D01*
X9865Y-10127D02*
X9865Y-11627D01*
X13115Y-12127D02*
X11990Y-12127D01*
X13615Y-11627D02*
X13115Y-12127D01*
X13615Y-10127D02*
X13615Y-11627D01*
G54D10*
G36*
X12926Y-11342D02*
X12829Y-11438D01*
X12586Y-11438D01*
X12500Y-11352D01*
X12283Y-11262D01*
X12048Y-11261D01*
X11698Y-11261D01*
X11615Y-11296D01*
X11533Y-11262D01*
X11298Y-11261D01*
X10948Y-11261D01*
X10731Y-11351D01*
X10647Y-11435D01*
X10554Y-11342D01*
X10554Y-10691D01*
X10554Y-10690D01*
X10705Y-10841D01*
X11009Y-10967D01*
X11338Y-10968D01*
X11642Y-10842D01*
X11674Y-10810D01*
X11705Y-10841D01*
X12009Y-10967D01*
X12338Y-10968D01*
X12642Y-10842D01*
X12861Y-10623D01*
X12863Y-10628D01*
X12926Y-10691D01*
X12926Y-11342D01*
X12926Y-11342D01*
G37*
G54D16*
X12926Y-11342D02*
X12829Y-11438D01*
X12586Y-11438D01*
X12500Y-11352D01*
X12283Y-11262D01*
X12048Y-11261D01*
X11698Y-11261D01*
X11615Y-11296D01*
X11533Y-11262D01*
X11298Y-11261D01*
X10948Y-11261D01*
X10731Y-11351D01*
X10647Y-11435D01*
X10554Y-11342D01*
X10554Y-10691D01*
X10554Y-10690D01*
X10705Y-10841D01*
X11009Y-10967D01*
X11338Y-10968D01*
X11642Y-10842D01*
X11674Y-10810D01*
X11705Y-10841D01*
X12009Y-10967D01*
X12338Y-10968D01*
X12642Y-10842D01*
X12861Y-10623D01*
X12863Y-10628D01*
X12926Y-10691D01*
X12926Y-11342D01*
G54D10*
G36*
X15243Y-13855D02*
X7822Y-13855D01*
X7822Y-11772D01*
X8579Y-11014D01*
X8579Y-9276D01*
X7822Y-8518D01*
X7822Y-6434D01*
X13834Y-6434D01*
X15243Y-7843D01*
X15243Y-8518D01*
X14485Y-9276D01*
X14485Y-9913D01*
X14366Y-9626D01*
X14117Y-9377D01*
X13792Y-9241D01*
X13439Y-9241D01*
X13114Y-9376D01*
X12864Y-9625D01*
X12853Y-9651D01*
X12643Y-9440D01*
X12339Y-9314D01*
X12010Y-9314D01*
X11706Y-9440D01*
X11674Y-9472D01*
X11643Y-9440D01*
X11339Y-9314D01*
X11010Y-9314D01*
X10706Y-9440D01*
X10568Y-9578D01*
X10367Y-9377D01*
X10042Y-9241D01*
X9689Y-9241D01*
X9364Y-9376D01*
X9114Y-9625D01*
X8979Y-9950D01*
X8979Y-10302D01*
X9113Y-10628D01*
X9176Y-10691D01*
X9176Y-11627D01*
X9228Y-11891D01*
X9378Y-12114D01*
X9878Y-12614D01*
X10101Y-12764D01*
X10365Y-12816D01*
X10644Y-12816D01*
X10730Y-12902D01*
X10947Y-12993D01*
X11182Y-12993D01*
X11532Y-12993D01*
X11615Y-12958D01*
X11697Y-12993D01*
X11932Y-12993D01*
X12282Y-12993D01*
X12499Y-12903D01*
X12586Y-12816D01*
X13115Y-12816D01*
X13379Y-12764D01*
X13602Y-12614D01*
X14102Y-12114D01*
X14251Y-11891D01*
X14304Y-11627D01*
X14304Y-10691D01*
X14365Y-10629D01*
X14485Y-10342D01*
X14485Y-11014D01*
X15243Y-11772D01*
X15243Y-13855D01*
X15243Y-13855D01*
G37*
G54D16*
X15243Y-13855D02*
X7822Y-13855D01*
X7822Y-11772D01*
X8579Y-11014D01*
X8579Y-9276D01*
X7822Y-8518D01*
X7822Y-6434D01*
X13834Y-6434D01*
X15243Y-7843D01*
X15243Y-8518D01*
X14485Y-9276D01*
X14485Y-9913D01*
X14366Y-9626D01*
X14117Y-9377D01*
X13792Y-9241D01*
X13439Y-9241D01*
X13114Y-9376D01*
X12864Y-9625D01*
X12853Y-9651D01*
X12643Y-9440D01*
X12339Y-9314D01*
X12010Y-9314D01*
X11706Y-9440D01*
X11674Y-9472D01*
X11643Y-9440D01*
X11339Y-9314D01*
X11010Y-9314D01*
X10706Y-9440D01*
X10568Y-9578D01*
X10367Y-9377D01*
X10042Y-9241D01*
X9689Y-9241D01*
X9364Y-9376D01*
X9114Y-9625D01*
X8979Y-9950D01*
X8979Y-10302D01*
X9113Y-10628D01*
X9176Y-10691D01*
X9176Y-11627D01*
X9228Y-11891D01*
X9378Y-12114D01*
X9878Y-12614D01*
X10101Y-12764D01*
X10365Y-12816D01*
X10644Y-12816D01*
X10730Y-12902D01*
X10947Y-12993D01*
X11182Y-12993D01*
X11532Y-12993D01*
X11615Y-12958D01*
X11697Y-12993D01*
X11932Y-12993D01*
X12282Y-12993D01*
X12499Y-12903D01*
X12586Y-12816D01*
X13115Y-12816D01*
X13379Y-12764D01*
X13602Y-12614D01*
X14102Y-12114D01*
X14251Y-11891D01*
X14304Y-11627D01*
X14304Y-10691D01*
X14365Y-10629D01*
X14485Y-10342D01*
X14485Y-11014D01*
X15243Y-11772D01*
X15243Y-13855D01*
M02*
