G04 (created by PCBNEW (2013-may-18)-stable) date Пт 28 авг 2015 20:05:46*
%MOIN*%
G04 Gerber Fmt 3.4, Leading zero omitted, Abs format*
%FSLAX34Y34*%
G01*
G70*
G90*
G04 APERTURE LIST*
%ADD10C,0.00393701*%
%ADD11C,0.122047*%
%ADD12C,0.0551181*%
%ADD13R,0.19685X0.19685*%
%ADD14C,0.0590551*%
%ADD15C,0.019685*%
%ADD16C,0.0393701*%
G04 APERTURE END LIST*
G54D10*
G54D11*
X6977Y-26821D03*
X16032Y-26821D03*
X6947Y-36648D03*
X16002Y-36648D03*
G54D12*
X14482Y-9535D03*
X13482Y-9535D03*
X12482Y-9535D03*
X11482Y-9535D03*
X10482Y-9535D03*
X9482Y-9535D03*
X8482Y-9535D03*
X7482Y-9535D03*
X7482Y-9535D03*
X8482Y-9535D03*
X9482Y-9535D03*
X10482Y-9535D03*
X11482Y-9535D03*
X12482Y-9535D03*
X13482Y-9535D03*
X14482Y-9535D03*
G54D13*
X13496Y-18758D03*
X9559Y-18758D03*
X13496Y-14821D03*
X9559Y-14821D03*
G54D11*
X16055Y-16790D03*
X7000Y-16790D03*
G54D14*
X11744Y-33124D03*
X7950Y-11250D03*
X11850Y-23450D03*
X15100Y-11250D03*
G54D15*
X14482Y-9535D02*
X14482Y-13835D01*
X14482Y-13835D02*
X13496Y-14821D01*
X10482Y-9535D02*
X10482Y-9567D01*
X7950Y-15650D02*
X7950Y-11250D01*
X8600Y-16300D02*
X7950Y-15650D01*
X10550Y-16300D02*
X8600Y-16300D01*
X10950Y-15900D02*
X10550Y-16300D01*
X10950Y-13750D02*
X10950Y-15900D01*
X10150Y-12950D02*
X10950Y-13750D01*
X10150Y-9900D02*
X10150Y-12950D01*
X10482Y-9567D02*
X10150Y-9900D01*
X12482Y-9535D02*
X12485Y-9535D01*
X15100Y-15600D02*
X15100Y-11250D01*
X14700Y-16000D02*
X15100Y-15600D01*
X14700Y-17600D02*
X14700Y-16000D01*
X15050Y-17950D02*
X14700Y-17600D01*
X15050Y-19800D02*
X15050Y-17950D01*
X14550Y-20300D02*
X15050Y-19800D01*
X11900Y-20300D02*
X14550Y-20300D01*
X11550Y-19950D02*
X11900Y-20300D01*
X11550Y-13350D02*
X11550Y-19950D01*
X12850Y-12050D02*
X11550Y-13350D01*
X12850Y-9900D02*
X12850Y-12050D01*
X12485Y-9535D02*
X12850Y-9900D01*
X9482Y-9535D02*
X9482Y-9135D01*
X11482Y-9085D02*
X11482Y-9535D01*
X11132Y-8735D02*
X11482Y-9085D01*
X9882Y-8735D02*
X11132Y-8735D01*
X9482Y-9135D02*
X9882Y-8735D01*
X9559Y-14821D02*
X9559Y-9612D01*
X9559Y-9612D02*
X9482Y-9535D01*
X13482Y-11885D02*
X13482Y-12135D01*
X13482Y-9535D02*
X13482Y-11885D01*
X12132Y-17394D02*
X13496Y-18758D01*
X12132Y-13485D02*
X12132Y-17394D01*
X13482Y-12135D02*
X12132Y-13485D01*
X8482Y-9535D02*
X8482Y-8885D01*
X13482Y-9085D02*
X13482Y-9535D01*
X12382Y-7985D02*
X13482Y-9085D01*
X9382Y-7985D02*
X12382Y-7985D01*
X8482Y-8885D02*
X9382Y-7985D01*
G54D10*
G36*
X15208Y-40357D02*
X7787Y-40357D01*
X7787Y-38252D01*
X8522Y-37517D01*
X8522Y-35779D01*
X7787Y-35044D01*
X7787Y-34344D01*
X9195Y-32936D01*
X10863Y-32936D01*
X10858Y-32947D01*
X10858Y-33300D01*
X10993Y-33625D01*
X11242Y-33875D01*
X11567Y-34010D01*
X11919Y-34010D01*
X12245Y-33876D01*
X12495Y-33627D01*
X12630Y-33301D01*
X12630Y-32949D01*
X12625Y-32936D01*
X15208Y-32936D01*
X15208Y-34998D01*
X14427Y-35779D01*
X14427Y-37517D01*
X15208Y-38298D01*
X15208Y-40357D01*
X15208Y-40357D01*
G37*
G54D16*
X15208Y-40357D02*
X7787Y-40357D01*
X7787Y-38252D01*
X8522Y-37517D01*
X8522Y-35779D01*
X7787Y-35044D01*
X7787Y-34344D01*
X9195Y-32936D01*
X10863Y-32936D01*
X10858Y-32947D01*
X10858Y-33300D01*
X10993Y-33625D01*
X11242Y-33875D01*
X11567Y-34010D01*
X11919Y-34010D01*
X12245Y-33876D01*
X12495Y-33627D01*
X12630Y-33301D01*
X12630Y-32949D01*
X12625Y-32936D01*
X15208Y-32936D01*
X15208Y-34998D01*
X14427Y-35779D01*
X14427Y-37517D01*
X15208Y-38298D01*
X15208Y-40357D01*
G54D10*
G36*
X15202Y-30530D02*
X7781Y-30530D01*
X7781Y-28746D01*
X7831Y-28746D01*
X8696Y-27881D01*
X8696Y-25968D01*
X7831Y-25103D01*
X7781Y-25103D01*
X7781Y-24518D01*
X9190Y-23109D01*
X11032Y-23109D01*
X10964Y-23273D01*
X10964Y-23625D01*
X11098Y-23951D01*
X11347Y-24200D01*
X11673Y-24335D01*
X12025Y-24335D01*
X12351Y-24201D01*
X12600Y-23952D01*
X12735Y-23626D01*
X12735Y-23274D01*
X12667Y-23109D01*
X15202Y-23109D01*
X15202Y-25103D01*
X15168Y-25103D01*
X14303Y-25968D01*
X14303Y-27881D01*
X15168Y-28746D01*
X15202Y-28746D01*
X15202Y-30530D01*
X15202Y-30530D01*
G37*
G54D16*
X15202Y-30530D02*
X7781Y-30530D01*
X7781Y-28746D01*
X7831Y-28746D01*
X8696Y-27881D01*
X8696Y-25968D01*
X7831Y-25103D01*
X7781Y-25103D01*
X7781Y-24518D01*
X9190Y-23109D01*
X11032Y-23109D01*
X10964Y-23273D01*
X10964Y-23625D01*
X11098Y-23951D01*
X11347Y-24200D01*
X11673Y-24335D01*
X12025Y-24335D01*
X12351Y-24201D01*
X12600Y-23952D01*
X12735Y-23626D01*
X12735Y-23274D01*
X12667Y-23109D01*
X15202Y-23109D01*
X15202Y-25103D01*
X15168Y-25103D01*
X14303Y-25968D01*
X14303Y-27881D01*
X15168Y-28746D01*
X15202Y-28746D01*
X15202Y-30530D01*
M02*
