M48
;DRILL file {Pcbnew (2013-may-18)-stable} date Пт 28 авг 2015 20:17:11
;FORMAT={-:-/ absolute / inch / decimal}
FMAT,2
INCH,TZ
T1C0.035
T2C0.039
%
G90
G05
M72
T1
X0.7482Y-0.9535
X0.7482Y-0.9535
X0.8482Y-0.9535
X0.8482Y-0.9535
X0.9482Y-0.9535
X0.9482Y-0.9535
X1.0482Y-0.9535
X1.0482Y-0.9535
X1.1482Y-0.9535
X1.1482Y-0.9535
X1.2482Y-0.9535
X1.2482Y-0.9535
X1.3482Y-0.9535
X1.3482Y-0.9535
X1.4482Y-0.9535
X1.4482Y-0.9535
T2
X0.795Y-1.125
X1.1744Y-3.3125
X1.185Y-2.345
X1.51Y-1.125
T0
M30
