G04 (created by PCBNEW (2013-may-18)-stable) date Пт 28 авг 2015 20:05:46*
%MOIN*%
G04 Gerber Fmt 3.4, Leading zero omitted, Abs format*
%FSLAX34Y34*%
G01*
G70*
G90*
G04 APERTURE LIST*
%ADD10C,0.00393701*%
%ADD11C,0.011811*%
%ADD12C,0.00590551*%
%ADD13C,0.00492126*%
G04 APERTURE END LIST*
G54D10*
G54D11*
X14227Y-26720D02*
X14030Y-26720D01*
X13946Y-26410D02*
X14227Y-26410D01*
X14227Y-27001D01*
X13946Y-27001D01*
X13749Y-26804D02*
X13609Y-26410D01*
X13468Y-26804D02*
X13609Y-26410D01*
X13665Y-26270D01*
X13693Y-26242D01*
X13749Y-26214D01*
X13018Y-26439D02*
X13074Y-26410D01*
X13187Y-26410D01*
X13243Y-26439D01*
X13271Y-26495D01*
X13271Y-26720D01*
X13243Y-26776D01*
X13187Y-26804D01*
X13074Y-26804D01*
X13018Y-26776D01*
X12990Y-26720D01*
X12990Y-26664D01*
X13271Y-26607D01*
X12737Y-26467D02*
X12709Y-26439D01*
X12737Y-26410D01*
X12765Y-26439D01*
X12737Y-26467D01*
X12737Y-26410D01*
X11724Y-26410D02*
X12006Y-26410D01*
X12006Y-27001D01*
X11303Y-26439D02*
X11359Y-26410D01*
X11471Y-26410D01*
X11528Y-26439D01*
X11556Y-26495D01*
X11556Y-26720D01*
X11528Y-26776D01*
X11471Y-26804D01*
X11359Y-26804D01*
X11303Y-26776D01*
X11275Y-26720D01*
X11275Y-26664D01*
X11556Y-26607D01*
X11106Y-26804D02*
X10881Y-26804D01*
X11021Y-26410D02*
X11021Y-26917D01*
X10993Y-26973D01*
X10937Y-27001D01*
X10881Y-27001D01*
X10768Y-26804D02*
X10543Y-26804D01*
X10684Y-27001D02*
X10684Y-26495D01*
X10656Y-26439D01*
X10600Y-26410D01*
X10543Y-26410D01*
X9784Y-27001D02*
X9728Y-27001D01*
X9672Y-26973D01*
X9643Y-26945D01*
X9615Y-26889D01*
X9587Y-26776D01*
X9587Y-26635D01*
X9615Y-26523D01*
X9643Y-26467D01*
X9672Y-26439D01*
X9728Y-26410D01*
X9784Y-26410D01*
X9840Y-26439D01*
X9868Y-26467D01*
X9897Y-26523D01*
X9925Y-26635D01*
X9925Y-26776D01*
X9897Y-26889D01*
X9868Y-26945D01*
X9840Y-26973D01*
X9784Y-27001D01*
X9334Y-26467D02*
X9306Y-26439D01*
X9334Y-26410D01*
X9362Y-26439D01*
X9334Y-26467D01*
X9334Y-26410D01*
X8800Y-26804D02*
X8800Y-26410D01*
X8940Y-27029D02*
X9081Y-26607D01*
X8715Y-26607D01*
X14348Y-30039D02*
X14263Y-30010D01*
X14123Y-30010D01*
X14066Y-30039D01*
X14038Y-30067D01*
X14010Y-30123D01*
X14010Y-30179D01*
X14038Y-30235D01*
X14066Y-30264D01*
X14123Y-30292D01*
X14235Y-30320D01*
X14291Y-30348D01*
X14319Y-30376D01*
X14348Y-30432D01*
X14348Y-30489D01*
X14319Y-30545D01*
X14291Y-30573D01*
X14235Y-30601D01*
X14094Y-30601D01*
X14010Y-30573D01*
X13504Y-30039D02*
X13560Y-30010D01*
X13673Y-30010D01*
X13729Y-30039D01*
X13757Y-30067D01*
X13785Y-30123D01*
X13785Y-30292D01*
X13757Y-30348D01*
X13729Y-30376D01*
X13673Y-30404D01*
X13560Y-30404D01*
X13504Y-30376D01*
X13251Y-30010D02*
X13251Y-30404D01*
X13251Y-30292D02*
X13223Y-30348D01*
X13195Y-30376D01*
X13138Y-30404D01*
X13082Y-30404D01*
X12632Y-30010D02*
X12632Y-30320D01*
X12660Y-30376D01*
X12717Y-30404D01*
X12829Y-30404D01*
X12885Y-30376D01*
X12632Y-30039D02*
X12688Y-30010D01*
X12829Y-30010D01*
X12885Y-30039D01*
X12913Y-30095D01*
X12913Y-30151D01*
X12885Y-30207D01*
X12829Y-30235D01*
X12688Y-30235D01*
X12632Y-30264D01*
X12435Y-30404D02*
X12210Y-30404D01*
X12351Y-30601D02*
X12351Y-30095D01*
X12323Y-30039D01*
X12267Y-30010D01*
X12210Y-30010D01*
X11760Y-30039D02*
X11817Y-30010D01*
X11929Y-30010D01*
X11985Y-30039D01*
X12014Y-30067D01*
X12042Y-30123D01*
X12042Y-30292D01*
X12014Y-30348D01*
X11985Y-30376D01*
X11929Y-30404D01*
X11817Y-30404D01*
X11760Y-30376D01*
X11507Y-30010D02*
X11507Y-30601D01*
X11254Y-30010D02*
X11254Y-30320D01*
X11282Y-30376D01*
X11339Y-30404D01*
X11423Y-30404D01*
X11479Y-30376D01*
X11507Y-30348D01*
X10973Y-30010D02*
X10973Y-30601D01*
X10832Y-30601D01*
X10748Y-30573D01*
X10692Y-30517D01*
X10664Y-30460D01*
X10636Y-30348D01*
X10636Y-30264D01*
X10664Y-30151D01*
X10692Y-30095D01*
X10748Y-30039D01*
X10832Y-30010D01*
X10973Y-30010D01*
X10129Y-30404D02*
X10129Y-30010D01*
X10382Y-30404D02*
X10382Y-30095D01*
X10354Y-30039D01*
X10298Y-30010D01*
X10214Y-30010D01*
X10157Y-30039D01*
X10129Y-30067D01*
X9848Y-30010D02*
X9848Y-30404D01*
X9848Y-30601D02*
X9876Y-30573D01*
X9848Y-30545D01*
X9820Y-30573D01*
X9848Y-30601D01*
X9848Y-30545D01*
X9567Y-30404D02*
X9567Y-30010D01*
X9567Y-30348D02*
X9539Y-30376D01*
X9483Y-30404D01*
X9398Y-30404D01*
X9342Y-30376D01*
X9314Y-30320D01*
X9314Y-30010D01*
X8948Y-30010D02*
X9005Y-30039D01*
X9033Y-30067D01*
X9061Y-30123D01*
X9061Y-30292D01*
X9033Y-30348D01*
X9005Y-30376D01*
X8948Y-30404D01*
X8864Y-30404D01*
X8808Y-30376D01*
X8780Y-30348D01*
X8751Y-30292D01*
X8751Y-30123D01*
X8780Y-30067D01*
X8808Y-30039D01*
X8864Y-30010D01*
X8948Y-30010D01*
X14564Y-36571D02*
X14367Y-36571D01*
X14283Y-36262D02*
X14564Y-36262D01*
X14564Y-36853D01*
X14283Y-36853D01*
X14086Y-36656D02*
X13945Y-36262D01*
X13805Y-36656D02*
X13945Y-36262D01*
X14001Y-36121D01*
X14029Y-36093D01*
X14086Y-36065D01*
X13355Y-36290D02*
X13411Y-36262D01*
X13523Y-36262D01*
X13580Y-36290D01*
X13608Y-36346D01*
X13608Y-36571D01*
X13580Y-36628D01*
X13523Y-36656D01*
X13411Y-36656D01*
X13355Y-36628D01*
X13326Y-36571D01*
X13326Y-36515D01*
X13608Y-36459D01*
X13073Y-36318D02*
X13045Y-36290D01*
X13073Y-36262D01*
X13101Y-36290D01*
X13073Y-36318D01*
X13073Y-36262D01*
X12005Y-36262D02*
X12202Y-36543D01*
X12342Y-36262D02*
X12342Y-36853D01*
X12117Y-36853D01*
X12061Y-36824D01*
X12033Y-36796D01*
X12005Y-36740D01*
X12005Y-36656D01*
X12033Y-36600D01*
X12061Y-36571D01*
X12117Y-36543D01*
X12342Y-36543D01*
X11752Y-36262D02*
X11752Y-36656D01*
X11752Y-36853D02*
X11780Y-36824D01*
X11752Y-36796D01*
X11724Y-36824D01*
X11752Y-36853D01*
X11752Y-36796D01*
X11217Y-36656D02*
X11217Y-36178D01*
X11245Y-36121D01*
X11274Y-36093D01*
X11330Y-36065D01*
X11414Y-36065D01*
X11470Y-36093D01*
X11217Y-36290D02*
X11274Y-36262D01*
X11386Y-36262D01*
X11442Y-36290D01*
X11470Y-36318D01*
X11499Y-36375D01*
X11499Y-36543D01*
X11470Y-36600D01*
X11442Y-36628D01*
X11386Y-36656D01*
X11274Y-36656D01*
X11217Y-36628D01*
X10936Y-36262D02*
X10936Y-36853D01*
X10683Y-36262D02*
X10683Y-36571D01*
X10711Y-36628D01*
X10767Y-36656D01*
X10852Y-36656D01*
X10908Y-36628D01*
X10936Y-36600D01*
X10486Y-36656D02*
X10261Y-36656D01*
X10402Y-36853D02*
X10402Y-36346D01*
X10374Y-36290D01*
X10317Y-36262D01*
X10261Y-36262D01*
X9502Y-36853D02*
X9446Y-36853D01*
X9389Y-36824D01*
X9361Y-36796D01*
X9333Y-36740D01*
X9305Y-36628D01*
X9305Y-36487D01*
X9333Y-36375D01*
X9361Y-36318D01*
X9389Y-36290D01*
X9446Y-36262D01*
X9502Y-36262D01*
X9558Y-36290D01*
X9586Y-36318D01*
X9614Y-36375D01*
X9643Y-36487D01*
X9643Y-36628D01*
X9614Y-36740D01*
X9586Y-36796D01*
X9558Y-36824D01*
X9502Y-36853D01*
X9052Y-36318D02*
X9024Y-36290D01*
X9052Y-36262D01*
X9080Y-36290D01*
X9052Y-36318D01*
X9052Y-36262D01*
X8518Y-36656D02*
X8518Y-36262D01*
X8658Y-36881D02*
X8799Y-36459D01*
X8433Y-36459D01*
X14275Y-39890D02*
X14190Y-39862D01*
X14050Y-39862D01*
X13994Y-39890D01*
X13965Y-39918D01*
X13937Y-39975D01*
X13937Y-40031D01*
X13965Y-40087D01*
X13994Y-40115D01*
X14050Y-40143D01*
X14162Y-40171D01*
X14219Y-40200D01*
X14247Y-40228D01*
X14275Y-40284D01*
X14275Y-40340D01*
X14247Y-40396D01*
X14219Y-40424D01*
X14162Y-40453D01*
X14022Y-40453D01*
X13937Y-40424D01*
X13431Y-39890D02*
X13487Y-39862D01*
X13600Y-39862D01*
X13656Y-39890D01*
X13684Y-39918D01*
X13712Y-39975D01*
X13712Y-40143D01*
X13684Y-40200D01*
X13656Y-40228D01*
X13600Y-40256D01*
X13487Y-40256D01*
X13431Y-40228D01*
X13178Y-39862D02*
X13178Y-40256D01*
X13178Y-40143D02*
X13150Y-40200D01*
X13122Y-40228D01*
X13066Y-40256D01*
X13009Y-40256D01*
X12559Y-39862D02*
X12559Y-40171D01*
X12587Y-40228D01*
X12644Y-40256D01*
X12756Y-40256D01*
X12812Y-40228D01*
X12559Y-39890D02*
X12616Y-39862D01*
X12756Y-39862D01*
X12812Y-39890D01*
X12841Y-39946D01*
X12841Y-40003D01*
X12812Y-40059D01*
X12756Y-40087D01*
X12616Y-40087D01*
X12559Y-40115D01*
X12362Y-40256D02*
X12138Y-40256D01*
X12278Y-40453D02*
X12278Y-39946D01*
X12250Y-39890D01*
X12194Y-39862D01*
X12138Y-39862D01*
X11688Y-39890D02*
X11744Y-39862D01*
X11856Y-39862D01*
X11913Y-39890D01*
X11941Y-39918D01*
X11969Y-39975D01*
X11969Y-40143D01*
X11941Y-40200D01*
X11913Y-40228D01*
X11856Y-40256D01*
X11744Y-40256D01*
X11688Y-40228D01*
X11434Y-39862D02*
X11434Y-40453D01*
X11181Y-39862D02*
X11181Y-40171D01*
X11210Y-40228D01*
X11266Y-40256D01*
X11350Y-40256D01*
X11406Y-40228D01*
X11434Y-40200D01*
X10900Y-39862D02*
X10900Y-40453D01*
X10760Y-40453D01*
X10675Y-40424D01*
X10619Y-40368D01*
X10591Y-40312D01*
X10563Y-40200D01*
X10563Y-40115D01*
X10591Y-40003D01*
X10619Y-39946D01*
X10675Y-39890D01*
X10760Y-39862D01*
X10900Y-39862D01*
X10057Y-40256D02*
X10057Y-39862D01*
X10310Y-40256D02*
X10310Y-39946D01*
X10282Y-39890D01*
X10225Y-39862D01*
X10141Y-39862D01*
X10085Y-39890D01*
X10057Y-39918D01*
X9775Y-39862D02*
X9775Y-40256D01*
X9775Y-40453D02*
X9803Y-40424D01*
X9775Y-40396D01*
X9747Y-40424D01*
X9775Y-40453D01*
X9775Y-40396D01*
X9494Y-40256D02*
X9494Y-39862D01*
X9494Y-40200D02*
X9466Y-40228D01*
X9410Y-40256D01*
X9325Y-40256D01*
X9269Y-40228D01*
X9241Y-40171D01*
X9241Y-39862D01*
X8875Y-39862D02*
X8932Y-39890D01*
X8960Y-39918D01*
X8988Y-39975D01*
X8988Y-40143D01*
X8960Y-40200D01*
X8932Y-40228D01*
X8875Y-40256D01*
X8791Y-40256D01*
X8735Y-40228D01*
X8707Y-40200D01*
X8679Y-40143D01*
X8679Y-39975D01*
X8707Y-39918D01*
X8735Y-39890D01*
X8791Y-39862D01*
X8875Y-39862D01*
X13456Y-18943D02*
X13456Y-18681D01*
X13868Y-18568D02*
X13868Y-18943D01*
X13081Y-18943D01*
X13081Y-18568D01*
X13343Y-18306D02*
X13868Y-18118D01*
X13343Y-17931D02*
X13868Y-18118D01*
X14056Y-18193D01*
X14093Y-18231D01*
X14131Y-18306D01*
X13831Y-17331D02*
X13868Y-17406D01*
X13868Y-17556D01*
X13831Y-17631D01*
X13756Y-17668D01*
X13456Y-17668D01*
X13381Y-17631D01*
X13343Y-17556D01*
X13343Y-17406D01*
X13381Y-17331D01*
X13456Y-17293D01*
X13531Y-17293D01*
X13606Y-17668D01*
X13081Y-16206D02*
X13081Y-16131D01*
X13118Y-16056D01*
X13156Y-16018D01*
X13231Y-15981D01*
X13381Y-15943D01*
X13568Y-15943D01*
X13718Y-15981D01*
X13793Y-16018D01*
X13831Y-16056D01*
X13868Y-16131D01*
X13868Y-16206D01*
X13831Y-16281D01*
X13793Y-16318D01*
X13718Y-16356D01*
X13568Y-16393D01*
X13381Y-16393D01*
X13231Y-16356D01*
X13156Y-16318D01*
X13118Y-16281D01*
X13081Y-16206D01*
X13793Y-15606D02*
X13831Y-15568D01*
X13868Y-15606D01*
X13831Y-15643D01*
X13793Y-15606D01*
X13868Y-15606D01*
X13343Y-14894D02*
X13868Y-14894D01*
X13043Y-15081D02*
X13606Y-15268D01*
X13606Y-14781D01*
X9831Y-19430D02*
X9868Y-19318D01*
X9868Y-19130D01*
X9831Y-19055D01*
X9793Y-19018D01*
X9718Y-18980D01*
X9643Y-18980D01*
X9568Y-19018D01*
X9531Y-19055D01*
X9493Y-19130D01*
X9456Y-19280D01*
X9418Y-19355D01*
X9381Y-19393D01*
X9306Y-19430D01*
X9231Y-19430D01*
X9156Y-19393D01*
X9118Y-19355D01*
X9081Y-19280D01*
X9081Y-19093D01*
X9118Y-18980D01*
X9831Y-18305D02*
X9868Y-18380D01*
X9868Y-18530D01*
X9831Y-18605D01*
X9793Y-18643D01*
X9718Y-18680D01*
X9493Y-18680D01*
X9418Y-18643D01*
X9381Y-18605D01*
X9343Y-18530D01*
X9343Y-18380D01*
X9381Y-18305D01*
X9868Y-17968D02*
X9343Y-17968D01*
X9493Y-17968D02*
X9418Y-17930D01*
X9381Y-17893D01*
X9343Y-17818D01*
X9343Y-17743D01*
X9868Y-17143D02*
X9456Y-17143D01*
X9381Y-17181D01*
X9343Y-17256D01*
X9343Y-17406D01*
X9381Y-17481D01*
X9831Y-17143D02*
X9868Y-17218D01*
X9868Y-17406D01*
X9831Y-17481D01*
X9756Y-17518D01*
X9681Y-17518D01*
X9606Y-17481D01*
X9568Y-17406D01*
X9568Y-17218D01*
X9531Y-17143D01*
X9343Y-16881D02*
X9343Y-16581D01*
X9081Y-16768D02*
X9756Y-16768D01*
X9831Y-16731D01*
X9868Y-16656D01*
X9868Y-16581D01*
X9831Y-15981D02*
X9868Y-16056D01*
X9868Y-16206D01*
X9831Y-16281D01*
X9793Y-16318D01*
X9718Y-16356D01*
X9493Y-16356D01*
X9418Y-16318D01*
X9381Y-16281D01*
X9343Y-16206D01*
X9343Y-16056D01*
X9381Y-15981D01*
X9868Y-15643D02*
X9081Y-15643D01*
X9868Y-15306D02*
X9456Y-15306D01*
X9381Y-15343D01*
X9343Y-15418D01*
X9343Y-15531D01*
X9381Y-15606D01*
X9418Y-15643D01*
X9868Y-14931D02*
X9081Y-14931D01*
X9081Y-14743D01*
X9118Y-14631D01*
X9193Y-14556D01*
X9268Y-14518D01*
X9418Y-14481D01*
X9531Y-14481D01*
X9681Y-14518D01*
X9756Y-14556D01*
X9831Y-14631D01*
X9868Y-14743D01*
X9868Y-14931D01*
X9343Y-13806D02*
X9868Y-13806D01*
X9343Y-14143D02*
X9756Y-14143D01*
X9831Y-14106D01*
X9868Y-14031D01*
X9868Y-13918D01*
X9831Y-13843D01*
X9793Y-13806D01*
X9868Y-13431D02*
X9343Y-13431D01*
X9081Y-13431D02*
X9118Y-13469D01*
X9156Y-13431D01*
X9118Y-13394D01*
X9081Y-13431D01*
X9156Y-13431D01*
X9343Y-13056D02*
X9868Y-13056D01*
X9418Y-13056D02*
X9381Y-13019D01*
X9343Y-12944D01*
X9343Y-12831D01*
X9381Y-12756D01*
X9456Y-12719D01*
X9868Y-12719D01*
X9868Y-12231D02*
X9831Y-12306D01*
X9793Y-12344D01*
X9718Y-12381D01*
X9493Y-12381D01*
X9418Y-12344D01*
X9381Y-12306D01*
X9343Y-12231D01*
X9343Y-12119D01*
X9381Y-12044D01*
X9418Y-12006D01*
X9493Y-11969D01*
X9718Y-11969D01*
X9793Y-12006D01*
X9831Y-12044D01*
X9868Y-12119D01*
X9868Y-12231D01*
G54D10*
X16032Y-25246D02*
X15835Y-25246D01*
X15835Y-25246D02*
X15835Y-22490D01*
X15835Y-31152D02*
X15835Y-28396D01*
X15835Y-28396D02*
X16032Y-28396D01*
X6977Y-28396D02*
X7174Y-28396D01*
X7174Y-28396D02*
X7174Y-31152D01*
X6977Y-25246D02*
X7174Y-25246D01*
X7174Y-25246D02*
X7174Y-24459D01*
X16032Y-28396D02*
G75*
G03X17607Y-26821I0J1574D01*
G74*
G01*
X17607Y-26821D02*
G75*
G03X16032Y-25246I-1574J0D01*
G74*
G01*
X5402Y-26821D02*
G75*
G03X6977Y-28396I1574J0D01*
G74*
G01*
X6977Y-25246D02*
G75*
G03X5402Y-26821I0J-1574D01*
G74*
G01*
X7567Y-26821D02*
G75*
G03X7567Y-26821I-590J0D01*
G74*
G01*
X16622Y-26821D02*
G75*
G03X16622Y-26821I-590J0D01*
G74*
G01*
X7174Y-24459D02*
X7174Y-24262D01*
X7174Y-24262D02*
X8945Y-22490D01*
X8945Y-22490D02*
X15835Y-22490D01*
X15835Y-31152D02*
X7174Y-31152D01*
X16002Y-35073D02*
X15805Y-35073D01*
X15805Y-35073D02*
X15805Y-32317D01*
X15805Y-40979D02*
X15805Y-38223D01*
X15805Y-38223D02*
X16002Y-38223D01*
X6947Y-38223D02*
X7144Y-38223D01*
X7144Y-38223D02*
X7144Y-40979D01*
X6947Y-35073D02*
X7144Y-35073D01*
X7144Y-35073D02*
X7144Y-34286D01*
X16002Y-38223D02*
G75*
G03X17577Y-36648I0J1574D01*
G74*
G01*
X17577Y-36648D02*
G75*
G03X16002Y-35073I-1574J0D01*
G74*
G01*
X5372Y-36648D02*
G75*
G03X6947Y-38223I1574J0D01*
G74*
G01*
X6947Y-35073D02*
G75*
G03X5372Y-36648I0J-1574D01*
G74*
G01*
X7537Y-36648D02*
G75*
G03X7537Y-36648I-590J0D01*
G74*
G01*
X16592Y-36648D02*
G75*
G03X16592Y-36648I-590J0D01*
G74*
G01*
X7144Y-34286D02*
X7144Y-34089D01*
X7144Y-34089D02*
X8915Y-32317D01*
X8915Y-32317D02*
X15805Y-32317D01*
X15805Y-40979D02*
X7144Y-40979D01*
X14982Y-9035D02*
X6982Y-9035D01*
X14982Y-9035D02*
X14982Y-5535D01*
X14982Y-5535D02*
X6982Y-5535D01*
X6982Y-5535D02*
X6982Y-10035D01*
X6982Y-10035D02*
X14982Y-10035D01*
X14982Y-10035D02*
X14982Y-9035D01*
G54D12*
X12507Y-27571D02*
X12507Y-27177D01*
X12601Y-27177D01*
X12657Y-27196D01*
X12695Y-27234D01*
X12713Y-27271D01*
X12732Y-27346D01*
X12732Y-27402D01*
X12713Y-27477D01*
X12695Y-27515D01*
X12657Y-27552D01*
X12601Y-27571D01*
X12507Y-27571D01*
X12901Y-27571D02*
X12901Y-27177D01*
X13295Y-27196D02*
X13257Y-27177D01*
X13201Y-27177D01*
X13145Y-27196D01*
X13107Y-27234D01*
X13088Y-27271D01*
X13070Y-27346D01*
X13070Y-27402D01*
X13088Y-27477D01*
X13107Y-27515D01*
X13145Y-27552D01*
X13201Y-27571D01*
X13238Y-27571D01*
X13295Y-27552D01*
X13313Y-27534D01*
X13313Y-27402D01*
X13238Y-27402D01*
X13482Y-27571D02*
X13482Y-27177D01*
X13613Y-27177D02*
X13838Y-27177D01*
X13726Y-27571D02*
X13726Y-27177D01*
X13951Y-27459D02*
X14138Y-27459D01*
X13913Y-27571D02*
X14045Y-27177D01*
X14176Y-27571D01*
X14494Y-27571D02*
X14307Y-27571D01*
X14307Y-27177D01*
X9011Y-27177D02*
X9142Y-27571D01*
X9273Y-27177D01*
X9629Y-27534D02*
X9611Y-27552D01*
X9554Y-27571D01*
X9517Y-27571D01*
X9461Y-27552D01*
X9423Y-27515D01*
X9404Y-27477D01*
X9386Y-27402D01*
X9386Y-27346D01*
X9404Y-27271D01*
X9423Y-27234D01*
X9461Y-27196D01*
X9517Y-27177D01*
X9554Y-27177D01*
X9611Y-27196D01*
X9629Y-27215D01*
X10023Y-27534D02*
X10004Y-27552D01*
X9948Y-27571D01*
X9911Y-27571D01*
X9854Y-27552D01*
X9817Y-27515D01*
X9798Y-27477D01*
X9779Y-27402D01*
X9779Y-27346D01*
X9798Y-27271D01*
X9817Y-27234D01*
X9854Y-27196D01*
X9911Y-27177D01*
X9948Y-27177D01*
X10004Y-27196D01*
X10023Y-27215D01*
X12442Y-23522D02*
X12629Y-23522D01*
X12404Y-23634D02*
X12535Y-23240D01*
X12667Y-23634D01*
X12798Y-23634D02*
X12798Y-23240D01*
X13023Y-23634D01*
X13023Y-23240D01*
X13192Y-23522D02*
X13379Y-23522D01*
X13154Y-23634D02*
X13285Y-23240D01*
X13416Y-23634D01*
X13735Y-23634D02*
X13548Y-23634D01*
X13548Y-23240D01*
X13941Y-23240D02*
X14016Y-23240D01*
X14054Y-23259D01*
X14091Y-23297D01*
X14110Y-23372D01*
X14110Y-23503D01*
X14091Y-23578D01*
X14054Y-23615D01*
X14016Y-23634D01*
X13941Y-23634D01*
X13904Y-23615D01*
X13866Y-23578D01*
X13848Y-23503D01*
X13848Y-23372D01*
X13866Y-23297D01*
X13904Y-23259D01*
X13941Y-23240D01*
X14485Y-23259D02*
X14448Y-23240D01*
X14391Y-23240D01*
X14335Y-23259D01*
X14298Y-23297D01*
X14279Y-23334D01*
X14260Y-23409D01*
X14260Y-23465D01*
X14279Y-23540D01*
X14298Y-23578D01*
X14335Y-23615D01*
X14391Y-23634D01*
X14429Y-23634D01*
X14485Y-23615D01*
X14504Y-23597D01*
X14504Y-23465D01*
X14429Y-23465D01*
G54D13*
X9236Y-23259D02*
X9198Y-23240D01*
X9142Y-23240D01*
X9086Y-23259D01*
X9048Y-23297D01*
X9030Y-23334D01*
X9011Y-23409D01*
X9011Y-23465D01*
X9030Y-23540D01*
X9048Y-23578D01*
X9086Y-23615D01*
X9142Y-23634D01*
X9180Y-23634D01*
X9236Y-23615D01*
X9255Y-23597D01*
X9255Y-23465D01*
X9180Y-23465D01*
X9423Y-23634D02*
X9423Y-23240D01*
X9648Y-23634D01*
X9648Y-23240D01*
X9836Y-23634D02*
X9836Y-23240D01*
X9929Y-23240D01*
X9986Y-23259D01*
X10023Y-23297D01*
X10042Y-23334D01*
X10061Y-23409D01*
X10061Y-23465D01*
X10042Y-23540D01*
X10023Y-23578D01*
X9986Y-23615D01*
X9929Y-23634D01*
X9836Y-23634D01*
G54D12*
X12477Y-37398D02*
X12477Y-37004D01*
X12571Y-37004D01*
X12627Y-37023D01*
X12665Y-37060D01*
X12684Y-37098D01*
X12702Y-37173D01*
X12702Y-37229D01*
X12684Y-37304D01*
X12665Y-37342D01*
X12627Y-37379D01*
X12571Y-37398D01*
X12477Y-37398D01*
X12871Y-37398D02*
X12871Y-37004D01*
X13265Y-37023D02*
X13227Y-37004D01*
X13171Y-37004D01*
X13115Y-37023D01*
X13077Y-37060D01*
X13058Y-37098D01*
X13040Y-37173D01*
X13040Y-37229D01*
X13058Y-37304D01*
X13077Y-37342D01*
X13115Y-37379D01*
X13171Y-37398D01*
X13208Y-37398D01*
X13265Y-37379D01*
X13283Y-37360D01*
X13283Y-37229D01*
X13208Y-37229D01*
X13452Y-37398D02*
X13452Y-37004D01*
X13583Y-37004D02*
X13808Y-37004D01*
X13696Y-37398D02*
X13696Y-37004D01*
X13921Y-37285D02*
X14108Y-37285D01*
X13883Y-37398D02*
X14015Y-37004D01*
X14146Y-37398D01*
X14465Y-37398D02*
X14277Y-37398D01*
X14277Y-37004D01*
X8981Y-37004D02*
X9112Y-37398D01*
X9243Y-37004D01*
X9600Y-37360D02*
X9581Y-37379D01*
X9525Y-37398D01*
X9487Y-37398D01*
X9431Y-37379D01*
X9393Y-37342D01*
X9375Y-37304D01*
X9356Y-37229D01*
X9356Y-37173D01*
X9375Y-37098D01*
X9393Y-37060D01*
X9431Y-37023D01*
X9487Y-37004D01*
X9525Y-37004D01*
X9581Y-37023D01*
X9600Y-37042D01*
X9993Y-37360D02*
X9974Y-37379D01*
X9918Y-37398D01*
X9881Y-37398D01*
X9825Y-37379D01*
X9787Y-37342D01*
X9768Y-37304D01*
X9750Y-37229D01*
X9750Y-37173D01*
X9768Y-37098D01*
X9787Y-37060D01*
X9825Y-37023D01*
X9881Y-37004D01*
X9918Y-37004D01*
X9974Y-37023D01*
X9993Y-37042D01*
X12412Y-33348D02*
X12599Y-33348D01*
X12374Y-33461D02*
X12505Y-33067D01*
X12637Y-33461D01*
X12768Y-33461D02*
X12768Y-33067D01*
X12993Y-33461D01*
X12993Y-33067D01*
X13162Y-33348D02*
X13349Y-33348D01*
X13124Y-33461D02*
X13255Y-33067D01*
X13387Y-33461D01*
X13705Y-33461D02*
X13518Y-33461D01*
X13518Y-33067D01*
X13911Y-33067D02*
X13986Y-33067D01*
X14024Y-33086D01*
X14061Y-33123D01*
X14080Y-33198D01*
X14080Y-33330D01*
X14061Y-33405D01*
X14024Y-33442D01*
X13986Y-33461D01*
X13911Y-33461D01*
X13874Y-33442D01*
X13837Y-33405D01*
X13818Y-33330D01*
X13818Y-33198D01*
X13837Y-33123D01*
X13874Y-33086D01*
X13911Y-33067D01*
X14455Y-33086D02*
X14418Y-33067D01*
X14361Y-33067D01*
X14305Y-33086D01*
X14268Y-33123D01*
X14249Y-33161D01*
X14230Y-33236D01*
X14230Y-33292D01*
X14249Y-33367D01*
X14268Y-33405D01*
X14305Y-33442D01*
X14361Y-33461D01*
X14399Y-33461D01*
X14455Y-33442D01*
X14474Y-33423D01*
X14474Y-33292D01*
X14399Y-33292D01*
G54D13*
X9206Y-33086D02*
X9168Y-33067D01*
X9112Y-33067D01*
X9056Y-33086D01*
X9018Y-33123D01*
X9000Y-33161D01*
X8981Y-33236D01*
X8981Y-33292D01*
X9000Y-33367D01*
X9018Y-33405D01*
X9056Y-33442D01*
X9112Y-33461D01*
X9150Y-33461D01*
X9206Y-33442D01*
X9225Y-33423D01*
X9225Y-33292D01*
X9150Y-33292D01*
X9393Y-33461D02*
X9393Y-33067D01*
X9618Y-33461D01*
X9618Y-33067D01*
X9806Y-33461D02*
X9806Y-33067D01*
X9900Y-33067D01*
X9956Y-33086D01*
X9993Y-33123D01*
X10012Y-33161D01*
X10031Y-33236D01*
X10031Y-33292D01*
X10012Y-33367D01*
X9993Y-33405D01*
X9956Y-33442D01*
X9900Y-33461D01*
X9806Y-33461D01*
G54D12*
X6569Y-7041D02*
X6175Y-7041D01*
X6175Y-6947D01*
X6194Y-6891D01*
X6231Y-6853D01*
X6269Y-6835D01*
X6344Y-6816D01*
X6400Y-6816D01*
X6475Y-6835D01*
X6512Y-6853D01*
X6550Y-6891D01*
X6569Y-6947D01*
X6569Y-7041D01*
X6306Y-6478D02*
X6569Y-6478D01*
X6156Y-6572D02*
X6437Y-6666D01*
X6437Y-6422D01*
X6362Y-8363D02*
X6362Y-8231D01*
X6569Y-8175D02*
X6569Y-8363D01*
X6175Y-8363D01*
X6175Y-8175D01*
X6381Y-7931D02*
X6569Y-7931D01*
X6175Y-8063D02*
X6381Y-7931D01*
X6175Y-7800D01*
X6362Y-7669D02*
X6362Y-7538D01*
X6569Y-7481D02*
X6569Y-7669D01*
X6175Y-7669D01*
X6175Y-7481D01*
X10587Y-12834D02*
X10193Y-12834D01*
X10587Y-12609D01*
X10193Y-12609D01*
X10587Y-12421D02*
X10193Y-12421D01*
X10193Y-12271D01*
X10212Y-12234D01*
X10231Y-12215D01*
X10268Y-12196D01*
X10324Y-12196D01*
X10362Y-12215D01*
X10381Y-12234D01*
X10399Y-12271D01*
X10399Y-12421D01*
X10587Y-12028D02*
X10193Y-12028D01*
X10381Y-12028D02*
X10381Y-11803D01*
X10587Y-11803D02*
X10193Y-11803D01*
X10587Y-11447D02*
X10193Y-11447D01*
X10568Y-11447D02*
X10587Y-11484D01*
X10587Y-11559D01*
X10568Y-11597D01*
X10549Y-11615D01*
X10512Y-11634D01*
X10399Y-11634D01*
X10362Y-11615D01*
X10343Y-11597D01*
X10324Y-11559D01*
X10324Y-11484D01*
X10343Y-11447D01*
X10193Y-11297D02*
X10193Y-11053D01*
X10343Y-11184D01*
X10343Y-11128D01*
X10362Y-11090D01*
X10381Y-11072D01*
X10418Y-11053D01*
X10512Y-11053D01*
X10549Y-11072D01*
X10568Y-11090D01*
X10587Y-11128D01*
X10587Y-11240D01*
X10568Y-11278D01*
X10549Y-11297D01*
X10568Y-10865D02*
X10587Y-10865D01*
X10624Y-10884D01*
X10643Y-10903D01*
X10587Y-10490D02*
X10587Y-10715D01*
X10587Y-10603D02*
X10193Y-10603D01*
X10249Y-10640D01*
X10287Y-10678D01*
X10306Y-10715D01*
M02*
