G04 (created by PCBNEW (2013-may-18)-stable) date Пт 28 авг 2015 20:05:46*
%MOIN*%
G04 Gerber Fmt 3.4, Leading zero omitted, Abs format*
%FSLAX34Y34*%
G01*
G70*
G90*
G04 APERTURE LIST*
%ADD10C,0.00393701*%
%ADD11R,0.19685X0.19685*%
%ADD12C,0.122047*%
%ADD13C,0.0551181*%
%ADD14C,0.0590551*%
%ADD15C,0.019685*%
%ADD16C,0.0393701*%
G04 APERTURE END LIST*
G54D10*
G54D11*
X9536Y-28790D03*
X13473Y-28790D03*
X9536Y-24853D03*
X13473Y-24853D03*
G54D12*
X6977Y-26821D03*
X16032Y-26821D03*
G54D11*
X9506Y-38616D03*
X13443Y-38616D03*
X9506Y-34679D03*
X13443Y-34679D03*
G54D12*
X6947Y-36648D03*
X16002Y-36648D03*
G54D13*
X14482Y-9535D03*
X13482Y-9535D03*
X12482Y-9535D03*
X11482Y-9535D03*
X10482Y-9535D03*
X9482Y-9535D03*
X8482Y-9535D03*
X7482Y-9535D03*
X7482Y-9535D03*
X8482Y-9535D03*
X9482Y-9535D03*
X10482Y-9535D03*
X11482Y-9535D03*
X12482Y-9535D03*
X13482Y-9535D03*
X14482Y-9535D03*
G54D12*
X16055Y-16790D03*
X7000Y-16790D03*
G54D14*
X11744Y-33124D03*
X7950Y-11250D03*
X11850Y-23450D03*
X15100Y-11250D03*
G54D15*
X13443Y-34679D02*
X13299Y-34679D01*
X13299Y-34679D02*
X11744Y-33124D01*
X13473Y-24853D02*
X13253Y-24853D01*
X13253Y-24853D02*
X11850Y-23450D01*
G54D10*
G36*
X16813Y-9249D02*
X15575Y-10488D01*
X15276Y-10364D01*
X14924Y-10364D01*
X14598Y-10498D01*
X14349Y-10747D01*
X14214Y-11073D01*
X14214Y-11425D01*
X14348Y-11751D01*
X14597Y-12000D01*
X14923Y-12135D01*
X15238Y-12135D01*
X15238Y-15163D01*
X14480Y-15921D01*
X14480Y-17659D01*
X15238Y-18416D01*
X15238Y-20500D01*
X12730Y-20500D01*
X12730Y-11441D01*
X12728Y-11438D01*
X12728Y-11434D01*
X12639Y-11216D01*
X12550Y-10999D01*
X12546Y-10992D01*
X12546Y-10992D01*
X12546Y-10992D01*
X12541Y-10984D01*
X12537Y-10983D01*
X12215Y-10661D01*
X12215Y-10658D01*
X12211Y-10657D01*
X12209Y-10654D01*
X11991Y-10564D01*
X11775Y-10472D01*
X11771Y-10472D01*
X11767Y-10471D01*
X11532Y-10471D01*
X11297Y-10469D01*
X11294Y-10471D01*
X11290Y-10471D01*
X11072Y-10560D01*
X10855Y-10649D01*
X10848Y-10653D01*
X10848Y-10653D01*
X10848Y-10653D01*
X10840Y-10658D01*
X10839Y-10662D01*
X10517Y-10984D01*
X10514Y-10984D01*
X10513Y-10988D01*
X10510Y-10990D01*
X10420Y-11208D01*
X10328Y-11424D01*
X10328Y-11428D01*
X10327Y-11432D01*
X10327Y-11667D01*
X10325Y-11902D01*
X10326Y-11905D01*
X10326Y-11909D01*
X10416Y-12127D01*
X10505Y-12344D01*
X10509Y-12351D01*
X10509Y-12351D01*
X10509Y-12351D01*
X10514Y-12359D01*
X10518Y-12360D01*
X10840Y-12682D01*
X10840Y-12685D01*
X10844Y-12686D01*
X10846Y-12689D01*
X11064Y-12779D01*
X11280Y-12871D01*
X11284Y-12871D01*
X11288Y-12872D01*
X11523Y-12872D01*
X11758Y-12874D01*
X11761Y-12873D01*
X11765Y-12873D01*
X11983Y-12783D01*
X12200Y-12694D01*
X12207Y-12690D01*
X12207Y-12690D01*
X12207Y-12690D01*
X12215Y-12685D01*
X12216Y-12681D01*
X12538Y-12359D01*
X12541Y-12359D01*
X12542Y-12355D01*
X12545Y-12353D01*
X12635Y-12135D01*
X12727Y-11919D01*
X12727Y-11915D01*
X12728Y-11911D01*
X12728Y-11676D01*
X12730Y-11441D01*
X12730Y-20500D01*
X7817Y-20500D01*
X7817Y-18416D01*
X8575Y-17659D01*
X8575Y-15921D01*
X7817Y-15163D01*
X7817Y-12135D01*
X8125Y-12135D01*
X8451Y-12001D01*
X8700Y-11752D01*
X8835Y-11426D01*
X8835Y-11074D01*
X8701Y-10748D01*
X8452Y-10499D01*
X8126Y-10364D01*
X7774Y-10364D01*
X7478Y-10486D01*
X7394Y-10401D01*
X7484Y-10401D01*
X7653Y-10401D01*
X7656Y-10400D01*
X7659Y-10400D01*
X7968Y-10271D01*
X7969Y-10271D01*
X7972Y-10269D01*
X7982Y-10259D01*
X7991Y-10268D01*
X8309Y-10401D01*
X8653Y-10401D01*
X8972Y-10269D01*
X8982Y-10259D01*
X8991Y-10268D01*
X9309Y-10401D01*
X9653Y-10401D01*
X9972Y-10269D01*
X9982Y-10259D01*
X9991Y-10268D01*
X10309Y-10401D01*
X10653Y-10401D01*
X10972Y-10269D01*
X10982Y-10259D01*
X10991Y-10268D01*
X11309Y-10401D01*
X11653Y-10401D01*
X11972Y-10269D01*
X11982Y-10259D01*
X11991Y-10268D01*
X12309Y-10401D01*
X12653Y-10401D01*
X12972Y-10269D01*
X12982Y-10259D01*
X12991Y-10268D01*
X13309Y-10401D01*
X13653Y-10401D01*
X13972Y-10269D01*
X13982Y-10259D01*
X13991Y-10268D01*
X14309Y-10401D01*
X14653Y-10401D01*
X14972Y-10269D01*
X15216Y-10026D01*
X15348Y-9708D01*
X15348Y-9363D01*
X15216Y-9045D01*
X14973Y-8801D01*
X14655Y-8669D01*
X14310Y-8668D01*
X13992Y-8800D01*
X13982Y-8810D01*
X13973Y-8801D01*
X13655Y-8669D01*
X13310Y-8668D01*
X12992Y-8800D01*
X12982Y-8810D01*
X12973Y-8801D01*
X12655Y-8669D01*
X12310Y-8668D01*
X11992Y-8800D01*
X11982Y-8810D01*
X11973Y-8801D01*
X11655Y-8669D01*
X11310Y-8668D01*
X10992Y-8800D01*
X10982Y-8810D01*
X10973Y-8801D01*
X10655Y-8669D01*
X10310Y-8668D01*
X9992Y-8800D01*
X9982Y-8810D01*
X9973Y-8801D01*
X9655Y-8669D01*
X9310Y-8668D01*
X8992Y-8800D01*
X8982Y-8810D01*
X8973Y-8801D01*
X8655Y-8669D01*
X8310Y-8668D01*
X7992Y-8800D01*
X7982Y-8810D01*
X7973Y-8801D01*
X7969Y-8799D01*
X7968Y-8798D01*
X7812Y-8734D01*
X7655Y-8669D01*
X7652Y-8669D01*
X7649Y-8667D01*
X7480Y-8668D01*
X7310Y-8668D01*
X7308Y-8669D01*
X7305Y-8669D01*
X6995Y-8798D01*
X6995Y-8798D01*
X6992Y-8800D01*
X6748Y-9043D01*
X6746Y-9048D01*
X6745Y-9048D01*
X6681Y-9205D01*
X6616Y-9361D01*
X6616Y-9364D01*
X6615Y-9367D01*
X6616Y-9536D01*
X6616Y-9623D01*
X6242Y-9249D01*
X6242Y-6189D01*
X16813Y-6189D01*
X16813Y-9249D01*
X16813Y-9249D01*
G37*
G54D16*
X16813Y-9249D02*
X15575Y-10488D01*
X15276Y-10364D01*
X14924Y-10364D01*
X14598Y-10498D01*
X14349Y-10747D01*
X14214Y-11073D01*
X14214Y-11425D01*
X14348Y-11751D01*
X14597Y-12000D01*
X14923Y-12135D01*
X15238Y-12135D01*
X15238Y-15163D01*
X14480Y-15921D01*
X14480Y-17659D01*
X15238Y-18416D01*
X15238Y-20500D01*
X12730Y-20500D01*
X12730Y-11441D01*
X12728Y-11438D01*
X12728Y-11434D01*
X12639Y-11216D01*
X12550Y-10999D01*
X12546Y-10992D01*
X12546Y-10992D01*
X12546Y-10992D01*
X12541Y-10984D01*
X12537Y-10983D01*
X12215Y-10661D01*
X12215Y-10658D01*
X12211Y-10657D01*
X12209Y-10654D01*
X11991Y-10564D01*
X11775Y-10472D01*
X11771Y-10472D01*
X11767Y-10471D01*
X11532Y-10471D01*
X11297Y-10469D01*
X11294Y-10471D01*
X11290Y-10471D01*
X11072Y-10560D01*
X10855Y-10649D01*
X10848Y-10653D01*
X10848Y-10653D01*
X10848Y-10653D01*
X10840Y-10658D01*
X10839Y-10662D01*
X10517Y-10984D01*
X10514Y-10984D01*
X10513Y-10988D01*
X10510Y-10990D01*
X10420Y-11208D01*
X10328Y-11424D01*
X10328Y-11428D01*
X10327Y-11432D01*
X10327Y-11667D01*
X10325Y-11902D01*
X10326Y-11905D01*
X10326Y-11909D01*
X10416Y-12127D01*
X10505Y-12344D01*
X10509Y-12351D01*
X10509Y-12351D01*
X10509Y-12351D01*
X10514Y-12359D01*
X10518Y-12360D01*
X10840Y-12682D01*
X10840Y-12685D01*
X10844Y-12686D01*
X10846Y-12689D01*
X11064Y-12779D01*
X11280Y-12871D01*
X11284Y-12871D01*
X11288Y-12872D01*
X11523Y-12872D01*
X11758Y-12874D01*
X11761Y-12873D01*
X11765Y-12873D01*
X11983Y-12783D01*
X12200Y-12694D01*
X12207Y-12690D01*
X12207Y-12690D01*
X12207Y-12690D01*
X12215Y-12685D01*
X12216Y-12681D01*
X12538Y-12359D01*
X12541Y-12359D01*
X12542Y-12355D01*
X12545Y-12353D01*
X12635Y-12135D01*
X12727Y-11919D01*
X12727Y-11915D01*
X12728Y-11911D01*
X12728Y-11676D01*
X12730Y-11441D01*
X12730Y-20500D01*
X7817Y-20500D01*
X7817Y-18416D01*
X8575Y-17659D01*
X8575Y-15921D01*
X7817Y-15163D01*
X7817Y-12135D01*
X8125Y-12135D01*
X8451Y-12001D01*
X8700Y-11752D01*
X8835Y-11426D01*
X8835Y-11074D01*
X8701Y-10748D01*
X8452Y-10499D01*
X8126Y-10364D01*
X7774Y-10364D01*
X7478Y-10486D01*
X7394Y-10401D01*
X7484Y-10401D01*
X7653Y-10401D01*
X7656Y-10400D01*
X7659Y-10400D01*
X7968Y-10271D01*
X7969Y-10271D01*
X7972Y-10269D01*
X7982Y-10259D01*
X7991Y-10268D01*
X8309Y-10401D01*
X8653Y-10401D01*
X8972Y-10269D01*
X8982Y-10259D01*
X8991Y-10268D01*
X9309Y-10401D01*
X9653Y-10401D01*
X9972Y-10269D01*
X9982Y-10259D01*
X9991Y-10268D01*
X10309Y-10401D01*
X10653Y-10401D01*
X10972Y-10269D01*
X10982Y-10259D01*
X10991Y-10268D01*
X11309Y-10401D01*
X11653Y-10401D01*
X11972Y-10269D01*
X11982Y-10259D01*
X11991Y-10268D01*
X12309Y-10401D01*
X12653Y-10401D01*
X12972Y-10269D01*
X12982Y-10259D01*
X12991Y-10268D01*
X13309Y-10401D01*
X13653Y-10401D01*
X13972Y-10269D01*
X13982Y-10259D01*
X13991Y-10268D01*
X14309Y-10401D01*
X14653Y-10401D01*
X14972Y-10269D01*
X15216Y-10026D01*
X15348Y-9708D01*
X15348Y-9363D01*
X15216Y-9045D01*
X14973Y-8801D01*
X14655Y-8669D01*
X14310Y-8668D01*
X13992Y-8800D01*
X13982Y-8810D01*
X13973Y-8801D01*
X13655Y-8669D01*
X13310Y-8668D01*
X12992Y-8800D01*
X12982Y-8810D01*
X12973Y-8801D01*
X12655Y-8669D01*
X12310Y-8668D01*
X11992Y-8800D01*
X11982Y-8810D01*
X11973Y-8801D01*
X11655Y-8669D01*
X11310Y-8668D01*
X10992Y-8800D01*
X10982Y-8810D01*
X10973Y-8801D01*
X10655Y-8669D01*
X10310Y-8668D01*
X9992Y-8800D01*
X9982Y-8810D01*
X9973Y-8801D01*
X9655Y-8669D01*
X9310Y-8668D01*
X8992Y-8800D01*
X8982Y-8810D01*
X8973Y-8801D01*
X8655Y-8669D01*
X8310Y-8668D01*
X7992Y-8800D01*
X7982Y-8810D01*
X7973Y-8801D01*
X7969Y-8799D01*
X7968Y-8798D01*
X7812Y-8734D01*
X7655Y-8669D01*
X7652Y-8669D01*
X7649Y-8667D01*
X7480Y-8668D01*
X7310Y-8668D01*
X7308Y-8669D01*
X7305Y-8669D01*
X6995Y-8798D01*
X6995Y-8798D01*
X6992Y-8800D01*
X6748Y-9043D01*
X6746Y-9048D01*
X6745Y-9048D01*
X6681Y-9205D01*
X6616Y-9361D01*
X6616Y-9364D01*
X6615Y-9367D01*
X6616Y-9536D01*
X6616Y-9623D01*
X6242Y-9249D01*
X6242Y-6189D01*
X16813Y-6189D01*
X16813Y-9249D01*
M02*
