M48
;DRILL file {Pcbnew (2013-may-18)-stable} date Пт 28 авг 2015 20:41:24
;FORMAT={-:-/ absolute / inch / decimal}
FMAT,2
INCH,TZ
T1C0.043
%
G90
G05
M72
T1
X4.7Y-4.9
X4.8Y-4.9
X4.88Y-4.7
X4.88Y-4.8
X4.9Y-4.9
X4.98Y-4.7
X4.98Y-4.8
X5.Y-4.55
X5.08Y-4.7
X5.08Y-4.8
X5.1Y-4.55
X5.18Y-4.7
X5.18Y-4.8
X5.2Y-4.55
X5.28Y-4.7
X5.28Y-4.8
X5.38Y-4.7
X5.38Y-4.8
X5.45Y-4.9
X5.48Y-4.7
X5.48Y-4.8
X5.55Y-4.9
X5.65Y-4.9
T0
M30
