M48
;DRILL file {Pcbnew (2013-may-18)-stable} date Пт 28 авг 2015 20:37:49
;FORMAT={-:-/ absolute / inch / decimal}
FMAT,2
INCH,TZ
T1C0.039
%
G90
G05
M72
T1
X4.82Y-3.89
X4.82Y-3.99
X4.82Y-4.09
X4.82Y-4.19
X4.82Y-4.29
X4.82Y-4.39
X4.82Y-4.59
X4.82Y-4.69
X4.82Y-4.79
X4.82Y-4.89
X4.82Y-4.99
X4.82Y-5.09
X4.99Y-5.145
X5.265Y-3.9445
X5.265Y-4.2445
X5.27Y-4.14
X5.345Y-3.665
X5.365Y-3.9445
X5.365Y-4.2445
X5.395Y-4.715
X5.47Y-4.815
X5.475Y-3.67
X5.595Y-3.665
X5.7325Y-4.45
X5.735Y-3.86
X6.07Y-3.225
X6.07Y-3.315
X6.095Y-3.765
X6.44Y-3.74
X6.44Y-3.84
X6.52Y-5.09
X6.615Y-4.97
X6.72Y-3.54
X6.72Y-3.64
X6.72Y-3.74
X6.72Y-3.84
X6.72Y-3.94
X6.72Y-4.04
X6.72Y-4.14
X6.72Y-4.24
X6.72Y-4.39
X6.72Y-4.49
X6.72Y-4.59
X6.72Y-4.69
X6.72Y-4.79
X6.72Y-4.89
X6.72Y-4.99
X6.72Y-5.09
T0
M30
